# xmcd
# 
# Track frame offsets:
#     150
#     6108
#     12073
#     35940
#     69665
#     94035
#     119713
#     150495
#     158635
#     181728
#     186578
#     194470
# 
# Disc length: 2646
# 
# Revision: 2
# Processed by: cddbd v1.5.2PL0 Copyright (c) Steve Scherf et al.
# Submitted via: BonkEnc v1.0
# 
DISCID=9c0a540c
DTITLE=あがた森魚 - 日本少年2000系　Disk 2
DYEAR=1999
DGENRE=フォーク
TTITLE0=雪男
TTITLE1=誇りを胸に帆を上げよ（僕らの船は海へ出る）
TTITLE2=あこがれそして港ｂ
TTITLE3=たそがれる海の城
TTITLE4=ジブラ流樽ワルツ
TTITLE5=ジュールとジムの法則（ジュヴナイル・ヴァージョン）
TTITLE6=珊瑚魔術師の弟子
TTITLE7=さまよえる未だ犬の夢
TTITLE8=ボグド・真白き山（ボグド・ドゥンジン・ガラブ）
TTITLE9=LongLongSeaSickBlues(RoxyMix)
TTITLE10=LongLongSeaSickBluesAgain(PatagoniaMix)
TTITLE11=HeartBreakBrassBand
EXTD=YEAR: 1999
EXTT0=
EXTT1=
EXTT2=
EXTT3=
EXTT4=
EXTT5=
EXTT6=
EXTT7=
EXTT8=
EXTT9=
EXTT10=
EXTT11=
PLAYORDER=
